
<svg
    display="none"
    width="0"
    height="0"
    version="1.1"
    xmlns="http://www.w3.org/2000/svg"
    xmlns:xlink="http://www.w3.org/1999/xlink"
>
    <defs>
        <symbol id="vn">
            <path d="M32 0H4C2.93913 0 1.92172 0.421427 1.17157 1.17157C0.421427 1.92172 0 2.93913 0 4L0 22C0 23.0609 0.421427 24.0783 1.17157 24.8284C1.92172 25.5786 2.93913 26 4 26H32C33.0609 26 34.0783 25.5786 34.8284 24.8284C35.5786 24.0783 36 23.0609 36 22V4C36 2.93913 35.5786 1.92172 34.8284 1.17157C34.0783 0.421427 33.0609 0 32 0Z" fill="#DA251D"/>
            <path d="M19.753 11.0371L18 5.64209L16.247 11.0371H10.575L15.164 14.3701L13.411 19.7651L18 16.4311L22.589 19.7651L20.836 14.3701L25.425 11.0371H19.753Z" fill="#FFFF00"/>
        </symbol>
        <symbol id="search">
            <path d="M24.8796 26L14.9417 16.0634C14.1482 16.7393 13.2357 17.2625 12.2041 17.6327C11.1726 18.003 10.1357 18.1881 9.09357 18.1881C6.55224 18.1881 4.40131 17.3085 2.64079 15.5492C0.880262 13.7889 0 11.6388 0 9.09881C0 6.55885 0.879204 4.40765 2.63761 2.64522C4.39708 0.881741 6.54695 0 9.08722 0C11.6286 0 13.7805 0.880155 15.5432 2.64046C17.3058 4.40077 18.1871 6.55197 18.1871 9.09405C18.1871 10.1964 17.9919 11.2632 17.6015 12.2947C17.2101 13.3261 16.6969 14.2084 16.0621 14.9415L26 24.8765L24.878 26H24.8796ZM9.09357 16.5997C11.199 16.5997 12.977 15.875 14.4275 14.4258C15.877 12.9765 16.6017 11.1987 16.6017 9.09246C16.6017 6.98729 15.877 5.21005 14.4275 3.76076C12.978 2.31146 11.2006 1.58682 9.09516 1.58682C6.98972 1.58682 5.21174 2.31146 3.76122 3.76076C2.31175 5.21005 1.58701 6.98729 1.58701 9.09246C1.58701 11.1976 2.31175 12.9749 3.76122 14.4242C5.21069 15.8735 6.98814 16.5997 9.09357 16.5997Z" fill="black"/>
        </symbol>
        <symbol id="user">
            <path d="M13 11.7905C11.4685 11.7905 10.1567 11.2128 9.06471 10.0573C7.97271 8.90182 7.42733 7.51447 7.42857 5.89525C7.42857 4.2734 7.97395 2.88474 9.06471 1.72927C10.1555 0.576423 11.4672 0 13 0C14.5328 0 15.8445 0.576423 16.9353 1.72927C18.026 2.88474 18.5714 4.2734 18.5714 5.89525C18.5714 7.51578 18.026 8.90313 16.9353 10.0573C15.8445 11.2114 14.5328 11.7892 13 11.7905ZM0 25.998V22.7655C0 21.9546 0.222857 21.196 0.668572 20.4899C1.11552 19.7825 1.716 19.2336 2.47 18.8432C4.22314 17.9536 5.9769 17.2868 7.73129 16.8427C9.48691 16.3973 11.2431 16.1746 13 16.1746C14.7581 16.1746 16.5143 16.3973 18.2687 16.8427C20.0231 17.2881 21.7762 17.955 23.5281 18.8432C24.2834 19.2336 24.8839 19.7825 25.3296 20.4899C25.7765 21.196 26 21.9546 26 22.7655V26L0 25.998ZM1.85714 24.033H24.1429V22.7635C24.1429 22.3286 24.0104 21.9192 23.7454 21.5353C23.4792 21.1528 23.1115 20.8292 22.6423 20.5646C21.1145 19.7812 19.5384 19.1812 17.914 18.7646C16.2921 18.3467 14.6541 18.1377 13 18.1377C11.3471 18.1377 9.70914 18.3467 8.086 18.7646C6.46162 19.1812 4.88552 19.7812 3.35771 20.5646C2.88724 20.8292 2.51952 21.1528 2.25457 21.5353C1.98962 21.9192 1.85714 22.3292 1.85714 22.7655V24.033ZM13 9.82541C14.0214 9.82541 14.8961 9.44025 15.6241 8.66994C16.3521 7.89963 16.7155 6.97473 16.7143 5.89525C16.7143 4.81445 16.3509 3.8889 15.6241 3.11859C14.8974 2.34827 14.0227 1.96377 13 1.96508C11.9786 1.96508 11.1045 2.34958 10.3777 3.11859C9.65095 3.88759 9.28695 4.81314 9.28571 5.89525C9.28571 6.97604 9.64971 7.90094 10.3777 8.66994C11.1057 9.43894 11.9798 9.8241 13 9.82541Z" fill="black"/>
        </symbol>
        <symbol id="fb">
            <path d="M36 18C36 8.064 27.936 0 18 0C8.064 0 0 8.064 0 18C0 26.712 6.192 33.966 14.4 35.64V23.4H10.8V18H14.4V13.5C14.4 10.026 17.226 7.2 20.7 7.2H25.2V12.6H21.6C20.61 12.6 19.8 13.41 19.8 14.4V18H25.2V23.4H19.8V35.91C28.89 35.01 36 27.342 36 18Z" fill="#00A0DD"/>
        </symbol>
        <symbol id="world">
            <circle cx="18" cy="18" r="18" fill="#00A0DD"/>
            <path d="M22.796 20.2C22.884 19.474 22.95 18.748 22.95 18C22.95 17.252 22.884 16.526 22.796 15.8H26.514C26.69 16.504 26.8 17.241 26.8 18C26.8 18.759 26.69 19.496 26.514 20.2M20.849 26.316C21.509 25.095 22.015 23.775 22.367 22.4H25.612C24.5463 24.2351 22.8555 25.6252 20.849 26.316ZM20.574 20.2H15.426C15.316 19.474 15.25 18.748 15.25 18C15.25 17.252 15.316 16.515 15.426 15.8H20.574C20.673 16.515 20.75 17.252 20.75 18C20.75 18.748 20.673 19.474 20.574 20.2ZM18 26.756C17.087 25.436 16.35 23.973 15.899 22.4H20.101C19.65 23.973 18.913 25.436 18 26.756ZM13.6 13.6H10.388C11.4427 11.7599 13.1323 10.3676 15.14 9.684C14.48 10.905 13.985 12.225 13.6 13.6ZM10.388 22.4H13.6C13.985 23.775 14.48 25.095 15.14 26.316C13.1365 25.6248 11.4493 24.2345 10.388 22.4ZM9.486 20.2C9.31 19.496 9.2 18.759 9.2 18C9.2 17.241 9.31 16.504 9.486 15.8H13.204C13.116 16.526 13.05 17.252 13.05 18C13.05 18.748 13.116 19.474 13.204 20.2M18 9.233C18.913 10.553 19.65 12.027 20.101 13.6H15.899C16.35 12.027 17.087 10.553 18 9.233ZM25.612 13.6H22.367C22.0227 12.2376 21.5129 10.9225 20.849 9.684C22.873 10.377 24.556 11.774 25.612 13.6ZM18 7C11.917 7 7 11.95 7 18C7 20.9174 8.15893 23.7153 10.2218 25.7782C11.2433 26.7996 12.4559 27.6099 13.7905 28.1627C15.1251 28.7155 16.5555 29 18 29C20.9174 29 23.7153 27.8411 25.7782 25.7782C27.8411 23.7153 29 20.9174 29 18C29 16.5555 28.7155 15.1251 28.1627 13.7905C27.6099 12.4559 26.7996 11.2433 25.7782 10.2218C24.7567 9.20038 23.5441 8.39013 22.2095 7.83733C20.8749 7.28452 19.4445 7 18 7Z" fill="white"/>
        </symbol>
        <symbol id="email">
            <circle cx="18" cy="18" r="18" fill="#00A0DD"/>
            <path d="M26 10C26.5046 9.99984 26.9906 10.1904 27.3605 10.5335C27.7305 10.8766 27.9572 11.3468 27.995 11.85L28 12V24C28.0002 24.5046 27.8096 24.9906 27.4665 25.3605C27.1234 25.7305 26.6532 25.9572 26.15 25.995L26 26H10C9.49542 26.0002 9.00943 25.8096 8.63945 25.4665C8.26947 25.1234 8.04284 24.6532 8.005 24.15L8 24V12C7.99984 11.4954 8.19041 11.0094 8.5335 10.6395C8.87659 10.2695 9.34684 10.0428 9.85 10.005L10 10H26ZM26 13.414L19.06 20.354C18.7787 20.6349 18.3975 20.7927 18 20.7927C17.6025 20.7927 17.2213 20.6349 16.94 20.354L10 13.414V24H26V13.414ZM24.586 12H11.414L18 18.586L24.586 12Z" fill="#F3F3F3"/>
        </symbol>
        <symbol id="phone">
            <circle cx="18" cy="18" r="18" fill="#00A0DD"/>
            <path d="M11 10H15L17 15L14.5 16.5C15.571 18.6715 17.3285 20.429 19.5 21.5L21 19L26 21V25C26 25.5304 25.7893 26.0391 25.4142 26.4142C25.0391 26.7893 24.5304 27 24 27C20.0993 26.763 16.4202 25.1065 13.6568 22.3432C10.8935 19.5798 9.23705 15.9007 9 12C9 11.4696 9.21071 10.9609 9.58579 10.5858C9.96086 10.2107 10.4696 10 11 10Z" stroke="white" stroke-width="2" stroke-linecap="round" stroke-linejoin="round"/>
        </symbol>
        <symbol id="menu"><path d="M5 6h14M5 12h14M5 18h14" fill="none" stroke="currentColor" stroke-width="2" stroke-linecap="round"></path></symbol>
        <symbol id="arrow"><path fill-rule="evenodd" clip-rule="evenodd" d="M.586.586a2 2 0 0 1 2.828 0l12 12a2 2 0 0 1 0 2.828l-12 12a2 2 0 1 1-2.828-2.828L11.172 14 .586 3.414a2 2 0 0 1 0-2.828Z" fill="currentColor"/></symbol>
        <symbol id="three-dots">
            <rect x="1.4668" y="12.6" width="23.0667" height="14.2" rx="7.1" fill="white" stroke="#C7C7C7"/>
            <path d="M8.09535 19.7909C7.81505 19.7909 7.57452 19.6905 7.37376 19.4898C7.173 19.289 7.07262 19.0485 7.07262 18.7682C7.07262 18.4879 7.173 18.2474 7.37376 18.0466C7.57452 17.8458 7.81505 17.7455 8.09535 17.7455C8.37565 17.7455 8.61618 17.8458 8.81694 18.0466C9.0177 18.2474 9.11808 18.4879 9.11808 18.7682C9.11808 18.9538 9.07073 19.1243 8.97603 19.2796C8.88512 19.4349 8.76202 19.5599 8.60671 19.6546C8.4552 19.7455 8.28474 19.7909 8.09535 19.7909ZM13.0016 19.7909C12.7213 19.7909 12.4808 19.6905 12.28 19.4898C12.0793 19.289 11.9789 19.0485 11.9789 18.7682C11.9789 18.4879 12.0793 18.2474 12.28 18.0466C12.4808 17.8458 12.7213 17.7455 13.0016 17.7455C13.2819 17.7455 13.5224 17.8458 13.7232 18.0466C13.9239 18.2474 14.0243 18.4879 14.0243 18.7682C14.0243 18.9538 13.977 19.1243 13.8823 19.2796C13.7914 19.4349 13.6683 19.5599 13.513 19.6546C13.3614 19.7455 13.191 19.7909 13.0016 19.7909ZM17.9078 19.7909C17.6275 19.7909 17.387 19.6905 17.1863 19.4898C16.9855 19.289 16.8851 19.0485 16.8851 18.7682C16.8851 18.4879 16.9855 18.2474 17.1863 18.0466C17.387 17.8458 17.6275 17.7455 17.9078 17.7455C18.1882 17.7455 18.4287 17.8458 18.6294 18.0466C18.8302 18.2474 18.9306 18.4879 18.9306 18.7682C18.9306 18.9538 18.8832 19.1243 18.7885 19.2796C18.6976 19.4349 18.5745 19.5599 18.4192 19.6546C18.2677 19.7455 18.0972 19.7909 17.9078 19.7909Z" fill="#575757"/>
        </symbol>
    </defs>
</svg>
