<svg xmlns="http://www.w3.org/2000/svg" width="32" height="24" viewBox="0 0 32 24" fill="none">
  <mask id="mask0_101_49" style="mask-type:luminance" maskUnits="userSpaceOnUse" x="0" y="0" width="32" height="24">
    <path d="M0 0H32V24H0V0Z" fill="white"/>
  </mask>
  <g mask="url(#mask0_101_49)">
    <path d="M0 0H32V24H0V0Z" fill="white"/>
    <path fill-rule="evenodd" clip-rule="evenodd" d="M0 0V24H32V0H0Z" fill="#2E42A5"/>
    <mask id="mask1_101_49" style="mask-type:luminance" maskUnits="userSpaceOnUse" x="0" y="0" width="32" height="24">
      <path fill-rule="evenodd" clip-rule="evenodd" d="M0 0V24H32V0H0Z" fill="white"/>
    </mask>
    <g mask="url(#mask1_101_49)">
      <path d="M-3.56299 22.2849L3.47901 25.2639L32.159 3.23789L35.874 -1.18811L28.344 -2.18311L16.646 7.30789L7.23001 13.7039L-3.56299 22.2849Z" fill="white"/>
      <path d="M-2.6001 24.3719L0.988902 26.0999L34.5399 -1.59912H29.5029L-2.5991 24.3709L-2.6001 24.3719Z" fill="#F50100"/>
      <path d="M35.563 22.2849L28.521 25.2639L-0.159023 3.23789L-3.87402 -1.18811L3.65598 -2.18311L15.354 7.30789L24.77 13.7039L35.563 22.2849Z" fill="white"/>
      <path d="M35.3231 23.7829L31.7351 25.5109L17.4491 13.6509L13.2131 12.3269L-4.23193 -1.1731H0.806067L18.2401 12.0069L22.8711 13.5949L35.3231 23.7829Z" fill="#F50100"/>
      <path fill-rule="evenodd" clip-rule="evenodd" d="M19.7778 -2H12.2218V8H-1.97217V16H12.2218V26H19.7778V16H34.0278V8H19.7778V-2Z" fill="#F50100"/>
      <mask id="mask2_101_49" style="mask-type:luminance" maskUnits="userSpaceOnUse" x="-2" y="-2" width="37" height="28">
        <path fill-rule="evenodd" clip-rule="evenodd" d="M19.7778 -2H12.2218V8H-1.97217V16H12.2218V26H19.7778V16H34.0278V8H19.7778V-2Z" fill="white"/>
      </mask>
      <g mask="url(#mask2_101_49)">
        <path d="M12.2218 -2V-4H10.2218V-2H12.2218ZM19.7778 -2H21.7778V-4H19.7778V-2ZM12.2218 8V10H14.2218V8H12.2218ZM-1.97217 8V6H-3.97217V8H-1.97217ZM-1.97217 16H-3.97217V18H-1.97217V16ZM12.2218 16H14.2218V14H12.2218V16ZM12.2218 26H10.2218V28H12.2218V26ZM19.7778 26V28H21.7778V26H19.7778ZM19.7778 16V14H17.7778V16H19.7778ZM34.0278 16V18H36.0278V16H34.0278ZM34.0278 8H36.0278V6H34.0278V8ZM19.7778 8H17.7778V10H19.7778V8ZM12.2218 0H19.7778V-4H12.2218V0ZM14.2218 8V-2H10.2218V8H14.2218ZM-1.97217 10H12.2218V6H-1.97217V10ZM0.027832 16V8H-3.97217V16H0.027832ZM12.2218 14H-1.97217V18H12.2218V14ZM14.2218 26V16H10.2218V26H14.2218ZM19.7778 24H12.2218V28H19.7778V24ZM17.7778 16V26H21.7778V16H17.7778ZM34.0278 14H19.7778V18H34.0278V14ZM32.0278 8V16H36.0278V8H32.0278ZM19.7778 10H34.0278V6H19.7778V10ZM17.7778 -2V8H21.7778V-2H17.7778Z" fill="white"/>
      </g>
    </g>
  </g>
</svg>